name analog
datacolumns 19
datarows 19
range 0.3555 0.3645
endheader
time	ground_force_vx	ground_force_vy	ground_force_vz	ground_force_px	ground_force_py	ground_force_pz	l_ground_force_vx	l_ground_force_vy	l_ground_force_vz	l_ground_force_px	l_ground_force_py	l_ground_force_pz	ground_torque_x	ground_torque_y	ground_torque_z	l_ground_torque_x	l_ground_torque_y	l_ground_torque_z
0.3555	-0.0	-0.0	-0.0	-2.5865478515625	61.517913818359375	-518.677001953125	6.583658218383789	-58.94852066040039	-526.5465698242188	-0.0	-0.0	-0.0	-0.0	-0.0	-0.0	73503.703125	-10471.76171875	-6981.33984375
0.356	-0.0	-0.0	-0.0	-1.6592028141021729	61.96323013305664	-521.716552734375	6.938446521759033	-58.79069137573242	-527.6428833007812	-0.0	-0.0	-0.0	-0.0	-0.0	-0.0	73816.5234375	-10859.142578125	-6928.07470703125
0.3565	-0.0	-0.0	-0.0	-1.6057891845703125	61.91001510620117	-521.505615234375	7.0589985847473145	-58.9482650756836	-530.0867309570312	-0.0	-0.0	-0.0	-0.0	-0.0	-0.0	74242.34375	-11063.7119140625	-6731.0283203125
0.357	-0.0	-0.0	-0.0	-0.8561751246452332	62.12348175048828	-521.787353515625	7.661235332489014	-59.03085708618164	-531.2081298828125	-0.0	-0.0	-0.0	-0.0	-0.0	-0.0	74412.3359375	-11021.40234375	-6605.6982421875
0.3575	-0.0	-0.0	-0.0	-1.070526123046875	62.14156723022461	-523.26953125	8.40872573852539	-58.87313461303711	-533.02734375	-0.0	-0.0	-0.0	-0.0	-0.0	-0.0	74682.96875	-11324.9501953125	-6503.6318359375
0.358	-0.0	-0.0	-0.0	-0.2676315307617187	62.21197128295898	-525.535888671875	8.801107406616211	-58.54855728149414	-534.9002685546875	-0.0	-0.0	-0.0	-0.0	-0.0	-0.0	75558.953125	-11547.7548828125	-6286.5234375
0.3585	-0.0	-0.0	-0.0	0.106776975095272	62.15899658203125	-525.606689453125	9.454703330993652	-58.696739196777344	-536.7012329101562	-0.0	-0.0	-0.0	-0.0	-0.0	-0.0	75707.703125	-11756.0498046875	-6159.5703125
0.359	-0.0	-0.0	-0.0	0.4792923927307129	62.12214660644531	-527.5816040039062	9.991415023803713	-58.59432220458984	-539.5687866210938	-0.0	-0.0	-0.0	-0.0	-0.0	-0.0	76016.8984375	-12190.92578125	-6023.3564453125
0.3595	-0.0	-0.0	-0.0	0.8183100819587708	62.63922882080078	-529.8389282226562	10.59367847442627	-58.62713241577149	-541.315185546875	-0.0	-0.0	-0.0	-0.0	-0.0	-0.0	76680.203125	-12399.3173828125	-5826.36474609375
0.36	-0.0	-0.0	-0.0	1.9302294254302976	62.81489562988281	-530.5357666015625	10.878165245056152	-58.733924865722656	-544.400146484375	-0.0	-0.0	-0.0	-0.0	-0.0	-0.0	76968.96875	-12535.59375	-5585.26025390625
0.3605	-0.0	-0.0	-0.0	2.3194732666015625	63.38900375366211	-532.3106689453125	11.5842924118042	-58.84057235717773	-546.2642822265625	-0.0	-0.0	-0.0	-0.0	-0.0	-0.0	77592.5703125	-12774.814453125	-5511.90576171875
0.361	-0.0	-0.0	-0.0	3.461965084075928	64.40682220458984	-534.9993896484375	11.798534393310549	-58.87706756591797	-548.0958251953125	-0.0	-0.0	-0.0	-0.0	-0.0	-0.0	77862.3984375	-13099.5	-5415.6435546875
0.3615	-0.0	-0.0	-0.0	4.446687698364258	64.38980865478516	-538.829833984375	12.51366138458252	-59.17552947998047	-550.2017211914062	-0.0	-0.0	-0.0	-0.0	-0.0	-0.0	78408.484375	-13165.603515625	-5191.22314453125
0.362	-0.0	-0.0	-0.0	4.583967685699463	65.38751983642578	-541.7924194335938	13.554522514343262	-59.59899520874024	-553.6204833984375	-0.0	-0.0	-0.0	-0.0	-0.0	-0.0	78830.3984375	-13420.2392578125	-4864.3056640625
0.3625	-0.0	-0.0	-0.0	5.132198810577393	65.59603118896484	-543.25830078125	13.590913772583008	-59.81186676025391	-555.6431884765625	-0.0	-0.0	-0.0	-0.0	-0.0	-0.0	79422.625	-13638.4921875	-4793.583984375
0.363	-0.0	-0.0	-0.0	5.803005218505859	66.12211608886719	-546.7225341796875	14.707900047302246	-59.901851654052734	-560.873046875	-0.0	-0.0	-0.0	-0.0	-0.0	-0.0	79723.8828125	-13714.3759765625	-4584.53369140625
0.3635	-0.0	-0.0	-0.0	6.584657192230225	66.32532501220703	-551.0764770507812	15.169544219970703	-60.42854309082031	-561.435791015625	-0.0	-0.0	-0.0	-0.0	-0.0	-0.0	80215.4375	-14143.3623046875	-4371.20458984375
0.364	-0.0	-0.0	-0.0	7.799957275390625	67.25485229492188	-555.1988525390625	16.03868293762207	-60.0777702331543	-564.57373046875	-0.0	-0.0	-0.0	-0.0	-0.0	-0.0	80990.3828125	-14060.6435546875	-4162.44775390625
0.3645	-0.0	-0.0	-0.0	8.803574562072754	68.30742645263672	-560.9826049804688	16.979551315307617	-60.48330307006836	-568.630126953125	-0.0	-0.0	-0.0	-0.0	-0.0	-0.0	81253.59375	-14379.7548828125	-3930.6513671875
